# xmcd CD database file
#
# Track frame offsets:
#	150
#	13365
#	47977
#	70901
#	98084
#	126163
#	142498
#	175049
#	194056
#	216123
#	248336
#	272788
#	285241
#	320957
#
# Disc length: 4705 seconds
#
# Revision: 5
# Processed by: cddbd v1.5.2PL0 Copyright (c) Steve Scherf et al.
# Submitted via: CDex 1.51
#
DISCID=e0125f0e
DTITLE=Ken Follett - Sturz der Titanen CD11
DYEAR=2010
DGENRE=Hörbuch
TTITLE0=Sturz der Titanen CD11-01
TTITLE1=Sturz der Titanen CD11-02
TTITLE2=Sturz der Titanen CD11-03
TTITLE3=Sturz der Titanen CD11-04
TTITLE4=Sturz der Titanen CD11-05
TTITLE5=Sturz der Titanen CD11-06
TTITLE6=Sturz der Titanen CD11-07
TTITLE7=Sturz der Titanen CD11-08
TTITLE8=Sturz der Titanen CD11-09
TTITLE9=Sturz der Titanen CD11-10
TTITLE10=Sturz der Titanen CD11-11
TTITLE11=Sturz der Titanen CD11-12
TTITLE12=Sturz der Titanen CD11-13
TTITLE13=Sturz der Titanen CD11-14
EXTD=YEAR: 2010
EXTT0=
EXTT1=
EXTT2=
EXTT3=
EXTT4=
EXTT5=
EXTT6=
EXTT7=
EXTT8=
EXTT9=
EXTT10=
EXTT11=
EXTT12=
EXTT13=
PLAYORDER=
